<svg width="141" height="141" viewBox="0 0 141 141" fill="none" xmlns="http://www.w3.org/2000/svg">
<g clip-path="url(#clip0_2_4509)">
<path d="M123.375 26.4375H17.625C16.4564 26.4375 15.3356 26.9017 14.5093 27.7281C13.683 28.5544 13.2188 29.6751 13.2188 30.8438V105.75C13.2188 108.087 14.1472 110.329 15.7999 111.981C17.4525 113.634 19.694 114.562 22.0312 114.562H118.969C121.306 114.562 123.547 113.634 125.2 111.981C126.853 110.329 127.781 108.087 127.781 105.75V30.8438C127.781 29.6751 127.317 28.5544 126.491 27.7281C125.664 26.9017 124.544 26.4375 123.375 26.4375ZM54.3676 70.5L22.0312 100.138V40.8625L54.3676 70.5ZM60.8889 76.476L67.4982 82.5621C68.3112 83.3083 69.3745 83.7224 70.478 83.7224C71.5815 83.7224 72.6448 83.3083 73.4577 82.5621L80.0671 76.476L112.012 105.75H28.9546L60.8889 76.476ZM86.6324 70.5L118.969 40.857V100.143L86.6324 70.5Z" fill="#7B7B7B"/>
</g>
<defs>
<clipPath id="clip0_2_4509">
<rect width="141" height="141" fill="white"/>
</clipPath>
</defs>
</svg>
