<svg width="30" height="30" viewBox="0 0 30 30" fill="none" xmlns="http://www.w3.org/2000/svg">
<path d="M29.6249 15.0799C29.6203 18.6543 28.3089 22.1037 25.9376 24.7783C23.5663 27.4529 20.2989 29.1681 16.7507 29.6008C16.6717 29.6097 16.5917 29.6018 16.516 29.5776C16.4403 29.5534 16.3705 29.5134 16.3114 29.4602C16.2523 29.4071 16.2051 29.342 16.1729 29.2692C16.1408 29.1965 16.1244 29.1178 16.1249 29.0383V18.4549H19.4999C19.6542 18.4552 19.8068 18.4238 19.9484 18.3627C20.09 18.3015 20.2175 18.2119 20.323 18.0995C20.4285 17.987 20.5097 17.854 20.5617 17.7088C20.6136 17.5636 20.6352 17.4092 20.6249 17.2553C20.6001 16.966 20.4666 16.6969 20.2514 16.502C20.0361 16.3071 19.7551 16.201 19.4648 16.2049H16.1249V12.8299C16.1249 12.2331 16.362 11.6608 16.7839 11.2389C17.2059 10.8169 17.7782 10.5799 18.3749 10.5799H20.6249C20.7792 10.5802 20.9318 10.5488 21.0734 10.4877C21.215 10.4265 21.3425 10.3369 21.448 10.2245C21.5535 10.112 21.6347 9.97898 21.6867 9.83377C21.7386 9.68856 21.7602 9.53421 21.7499 9.38033C21.7251 9.09055 21.5912 8.82099 21.3754 8.62603C21.1595 8.43107 20.8778 8.32523 20.587 8.32986H18.3749C17.1815 8.32986 16.0369 8.80397 15.193 9.64788C14.349 10.4918 13.8749 11.6364 13.8749 12.8299V16.2049H10.4999C10.3457 16.2045 10.1931 16.2359 10.0515 16.297C9.90989 16.3582 9.78239 16.4478 9.67688 16.5603C9.57138 16.6728 9.49014 16.8057 9.43819 16.9509C9.38625 17.0962 9.36472 17.2505 9.37494 17.4044C9.39982 17.6942 9.53368 17.9637 9.74951 18.1587C9.96535 18.3536 10.2471 18.4595 10.5379 18.4549H13.8749V29.0411C13.8754 29.1205 13.8591 29.1991 13.827 29.2717C13.795 29.3443 13.7479 29.4093 13.6889 29.4624C13.63 29.5156 13.5604 29.5556 13.4849 29.5799C13.4093 29.6043 13.3295 29.6123 13.2506 29.6036C9.60746 29.1599 6.2637 27.3647 3.8811 24.5733C1.49851 21.7818 0.250742 18.1976 0.38478 14.53C0.66603 6.93627 6.81697 0.762828 14.4163 0.467516C16.3838 0.391305 18.3464 0.712697 20.1868 1.41247C22.0272 2.11224 23.7076 3.17601 25.1274 4.54015C26.5472 5.9043 27.6773 7.54079 28.4501 9.35174C29.2229 11.1627 29.6224 13.1109 29.6249 15.0799Z" fill="#292929"/>
</svg>
