<svg width="55" height="55" viewBox="0 0 55 55" fill="none" xmlns="http://www.w3.org/2000/svg">
<path fill-rule="evenodd" clip-rule="evenodd" d="M26.7694 0.0814822C34.0711 0.0204384 41.3737 1.94473 46.6658 6.85501C52.0832 11.8815 54.9251 18.9788 54.9985 26.2737C55.0727 33.6423 52.3747 40.8431 47.0605 46.0777C41.7228 51.3354 34.353 54.0636 26.7694 54.08C19.1684 54.0965 11.5917 51.5732 6.38796 46.1658C1.32165 40.9012 -0.141867 33.4948 0.0105871 26.2737C0.159371 19.2265 2.11154 12.1763 7.21094 7.18486C12.3169 2.18697 19.5382 0.141937 26.7694 0.0814822Z" fill="#292929"/>
<g clip-path="url(#clip0_2_122)">
<path d="M41 23.0801V33.0801C41 33.3453 40.8946 33.5996 40.7071 33.7872C40.5196 33.9747 40.2652 34.0801 40 34.0801H36V38.0801C36 38.3453 35.8946 38.5996 35.7071 38.7872C35.5196 38.9747 35.2652 39.0801 35 39.0801H19C18.7348 39.0801 18.4804 38.9747 18.2929 38.7872C18.1054 38.5996 18 38.3453 18 38.0801V34.0801H14C13.7348 34.0801 13.4804 33.9747 13.2929 33.7872C13.1054 33.5996 13 33.3453 13 33.0801V23.0801C13 21.4263 14.42 20.0801 16.1663 20.0801H18V16.0801C18 15.8149 18.1054 15.5605 18.2929 15.373C18.4804 15.1854 18.7348 15.0801 19 15.0801H35C35.2652 15.0801 35.5196 15.1854 35.7071 15.373C35.8946 15.5605 36 15.8149 36 16.0801V20.0801H37.8337C39.58 20.0801 41 21.4263 41 23.0801ZM20 20.0801H34V17.0801H20V20.0801ZM34 31.0801H20V37.0801H34V31.0801ZM36 25.5801C36 25.2834 35.912 24.9934 35.7472 24.7467C35.5824 24.5 35.3481 24.3078 35.074 24.1943C34.7999 24.0807 34.4983 24.051 34.2074 24.1089C33.9164 24.1668 33.6491 24.3096 33.4393 24.5194C33.2296 24.7292 33.0867 24.9965 33.0288 25.2874C32.9709 25.5784 33.0007 25.88 33.1142 26.1541C33.2277 26.4282 33.42 26.6625 33.6666 26.8273C33.9133 26.9921 34.2033 27.0801 34.5 27.0801C34.8978 27.0801 35.2794 26.922 35.5607 26.6407C35.842 26.3594 36 25.9779 36 25.5801Z" fill="white"/>
</g>
<defs>
<clipPath id="clip0_2_122">
<rect width="32" height="32" fill="white" transform="translate(11 11.0801)"/>
</clipPath>
</defs>
</svg>
