<svg width="30" height="30" viewBox="0 0 30 30" fill="none" xmlns="http://www.w3.org/2000/svg">
<path d="M19.5 15.0801C19.5 15.9701 19.2361 16.8401 18.7416 17.5801C18.2471 18.3202 17.5443 18.8969 16.7221 19.2375C15.8998 19.5781 14.995 19.6672 14.1221 19.4936C13.2492 19.32 12.4474 18.8914 11.818 18.2621C11.1887 17.6327 10.7601 16.8309 10.5865 15.958C10.4128 15.0851 10.5019 14.1803 10.8425 13.358C11.1831 12.5357 11.7599 11.8329 12.4999 11.3385C13.24 10.844 14.11 10.5801 15 10.5801C16.1935 10.5801 17.3381 11.0542 18.182 11.8981C19.0259 12.742 19.5 13.8866 19.5 15.0801ZM29.625 8.33008V21.8301C29.6228 23.918 28.7924 25.9197 27.316 27.3961C25.8396 28.8724 23.8379 29.7028 21.75 29.7051H8.25C6.16211 29.7028 4.16037 28.8724 2.684 27.3961C1.20764 25.9197 0.377233 23.918 0.375 21.8301V8.33008C0.377233 6.24218 1.20764 4.24044 2.684 2.76408C4.16037 1.28771 6.16211 0.457312 8.25 0.455078H21.75C23.8379 0.457312 25.8396 1.28771 27.316 2.76408C28.7924 4.24044 29.6228 6.24218 29.625 8.33008ZM21.75 15.0801C21.75 13.7451 21.3541 12.44 20.6124 11.33C19.8707 10.2199 18.8165 9.35478 17.5831 8.84389C16.3497 8.333 14.9925 8.19933 13.6831 8.45978C12.3738 8.72023 11.171 9.3631 10.227 10.3071C9.28302 11.2511 8.64015 12.4538 8.3797 13.7632C8.11925 15.0726 8.25292 16.4298 8.76381 17.6632C9.2747 18.8966 10.1399 19.9508 11.2499 20.6925C12.3599 21.4342 13.665 21.8301 15 21.8301C16.7896 21.8282 18.5054 21.1165 19.7709 19.851C21.0364 18.5855 21.7481 16.8697 21.75 15.0801ZM25.125 6.64258C25.125 6.30882 25.026 5.98256 24.8406 5.70505C24.6552 5.42755 24.3916 5.21125 24.0833 5.08353C23.7749 4.95581 23.4356 4.92239 23.1083 4.9875C22.7809 5.05262 22.4803 5.21333 22.2443 5.44934C22.0083 5.68534 21.8475 5.98602 21.7824 6.31336C21.7173 6.64071 21.7507 6.98001 21.8785 7.28836C22.0062 7.59671 22.2225 7.86026 22.5 8.04568C22.7775 8.23111 23.1037 8.33008 23.4375 8.33008C23.8851 8.33008 24.3143 8.15229 24.6307 7.83582C24.9472 7.51935 25.125 7.09013 25.125 6.64258Z" fill="#292929"/>
</svg>
