<svg width="30" height="30" viewBox="0 0 30 30" fill="none" xmlns="http://www.w3.org/2000/svg">
<path d="M27.375 0.455078H2.625C2.02826 0.455078 1.45597 0.692131 1.03401 1.11409C0.612053 1.53604 0.375 2.10834 0.375 2.70508V27.4551C0.375 28.0518 0.612053 28.6241 1.03401 29.0461C1.45597 29.468 2.02826 29.7051 2.625 29.7051H27.375C27.9717 29.7051 28.544 29.468 28.966 29.0461C29.3879 28.6241 29.625 28.0518 29.625 27.4551V2.70508C29.625 2.10834 29.3879 1.53604 28.966 1.11409C28.544 0.692131 27.9717 0.455078 27.375 0.455078ZM10.5 21.8301C10.5 22.1284 10.3815 22.4146 10.1705 22.6256C9.95952 22.8366 9.67337 22.9551 9.375 22.9551C9.07663 22.9551 8.79048 22.8366 8.5795 22.6256C8.36853 22.4146 8.25 22.1284 8.25 21.8301V12.8301C8.25 12.5317 8.36853 12.2456 8.5795 12.0346C8.79048 11.8236 9.07663 11.7051 9.375 11.7051C9.67337 11.7051 9.95952 11.8236 10.1705 12.0346C10.3815 12.2456 10.5 12.5317 10.5 12.8301V21.8301ZM9.375 10.5801C9.04124 10.5801 8.71498 10.4811 8.43748 10.2957C8.15997 10.1103 7.94368 9.84671 7.81595 9.53836C7.68823 9.23001 7.65481 8.89071 7.71992 8.56336C7.78504 8.23602 7.94576 7.93534 8.18176 7.69934C8.41776 7.46333 8.71844 7.30262 9.04578 7.2375C9.37313 7.17239 9.71243 7.20581 10.0208 7.33353C10.3291 7.46125 10.5927 7.67755 10.7781 7.95505C10.9635 8.23256 11.0625 8.55882 11.0625 8.89258C11.0625 9.34013 10.8847 9.76935 10.5682 10.0858C10.2518 10.4023 9.82255 10.5801 9.375 10.5801ZM22.875 21.8301C22.875 22.1284 22.7565 22.4146 22.5455 22.6256C22.3345 22.8366 22.0484 22.9551 21.75 22.9551C21.4516 22.9551 21.1655 22.8366 20.9545 22.6256C20.7435 22.4146 20.625 22.1284 20.625 21.8301V16.7676C20.625 16.0217 20.3287 15.3063 19.8012 14.7788C19.2738 14.2514 18.5584 13.9551 17.8125 13.9551C17.0666 13.9551 16.3512 14.2514 15.8238 14.7788C15.2963 15.3063 15 16.0217 15 16.7676V21.8301C15 22.1284 14.8815 22.4146 14.6705 22.6256C14.4595 22.8366 14.1734 22.9551 13.875 22.9551C13.5766 22.9551 13.2905 22.8366 13.0795 22.6256C12.8685 22.4146 12.75 22.1284 12.75 21.8301V12.8301C12.7514 12.5545 12.8539 12.2891 13.038 12.084C13.2222 11.879 13.4751 11.7487 13.749 11.7179C14.0228 11.687 14.2984 11.7577 14.5236 11.9166C14.7487 12.0754 14.9078 12.3114 14.9705 12.5798C15.7315 12.0635 16.6188 11.7643 17.5371 11.7142C18.4554 11.6642 19.3699 11.8653 20.1825 12.2958C20.9952 12.7263 21.6752 13.3701 22.1495 14.1579C22.6239 14.9458 22.8747 15.8479 22.875 16.7676V21.8301Z" fill="#292929"/>
</svg>
