<svg width="55" height="55" viewBox="0 0 55 55" fill="none" xmlns="http://www.w3.org/2000/svg">
<path fill-rule="evenodd" clip-rule="evenodd" d="M26.7694 0.0814822C34.0711 0.0204384 41.3737 1.94473 46.6658 6.85501C52.0832 11.8815 54.9251 18.9788 54.9985 26.2737C55.0727 33.6423 52.3747 40.8431 47.0605 46.0777C41.7228 51.3354 34.353 54.0636 26.7694 54.08C19.1684 54.0965 11.5917 51.5732 6.38796 46.1658C1.32165 40.9012 -0.141867 33.4948 0.0105871 26.2737C0.159371 19.2265 2.11154 12.1763 7.21094 7.18486C12.3169 2.18697 19.5382 0.141937 26.7694 0.0814822Z" fill="#292929"/>
<g clip-path="url(#clip0_2_112)">
<path d="M39 18.0801H15C14.7348 18.0801 14.4804 18.1854 14.2929 18.373C14.1054 18.5605 14 18.8149 14 19.0801V36.0801C14 36.6105 14.2107 37.1192 14.5858 37.4943C14.9609 37.8694 15.4696 38.0801 16 38.0801H38C38.5304 38.0801 39.0391 37.8694 39.4142 37.4943C39.7893 37.1192 40 36.6105 40 36.0801V19.0801C40 18.8149 39.8946 18.5605 39.7071 18.373C39.5196 18.1854 39.2652 18.0801 39 18.0801ZM23.3387 28.0801L16 34.8063V21.3538L23.3387 28.0801ZM24.8188 29.4363L26.3188 30.8176C26.5032 30.9869 26.7446 31.0809 26.995 31.0809C27.2454 31.0809 27.4868 30.9869 27.6712 30.8176L29.1712 29.4363L36.4212 36.0801H17.5712L24.8188 29.4363ZM30.6612 28.0801L38 21.3526V34.8076L30.6612 28.0801Z" fill="white"/>
</g>
<defs>
<clipPath id="clip0_2_112">
<rect width="32" height="32" fill="white" transform="translate(11 12.0801)"/>
</clipPath>
</defs>
</svg>
