<svg width="55" height="55" viewBox="0 0 55 55" fill="none" xmlns="http://www.w3.org/2000/svg">
<path fill-rule="evenodd" clip-rule="evenodd" d="M26.7694 0.0814822C34.0711 0.0204384 41.3737 1.94473 46.6658 6.85501C52.0832 11.8815 54.9251 18.9788 54.9985 26.2737C55.0727 33.6423 52.3747 40.8431 47.0605 46.0777C41.7228 51.3354 34.353 54.0636 26.7694 54.08C19.1684 54.0965 11.5917 51.5732 6.38796 46.1658C1.32165 40.9012 -0.141867 33.4948 0.0105871 26.2737C0.159371 19.2265 2.11154 12.1763 7.21094 7.18486C12.3169 2.18697 19.5382 0.141937 26.7694 0.0814822Z" fill="#292929"/>
<g clip-path="url(#clip0_2_131)">
<path d="M27 13.0801C24.0836 13.0834 21.2877 14.2434 19.2255 16.3056C17.1633 18.3677 16.0033 21.1637 16 24.0801C16 33.4926 26 40.6013 26.4263 40.8988C26.5944 41.0166 26.7947 41.0798 27 41.0798C27.2053 41.0798 27.4056 41.0166 27.5737 40.8988C28 40.6013 38 33.4926 38 24.0801C37.9967 21.1637 36.8367 18.3677 34.7745 16.3056C32.7123 14.2434 29.9164 13.0834 27 13.0801ZM27 20.0801C27.7911 20.0801 28.5645 20.3147 29.2223 20.7542C29.8801 21.1937 30.3928 21.8184 30.6955 22.5493C30.9983 23.2802 31.0775 24.0845 30.9231 24.8604C30.7688 25.6364 30.3878 26.3491 29.8284 26.9085C29.269 27.4679 28.5563 27.8489 27.7804 28.0032C27.0044 28.1576 26.2002 28.0783 25.4693 27.7756C24.7384 27.4728 24.1136 26.9602 23.6741 26.3024C23.2346 25.6446 23 24.8712 23 24.0801C23 23.0192 23.4214 22.0018 24.1716 21.2517C24.9217 20.5015 25.9391 20.0801 27 20.0801Z" fill="white"/>
</g>
<defs>
<clipPath id="clip0_2_131">
<rect width="32" height="32" fill="white" transform="translate(11 11.0801)"/>
</clipPath>
</defs>
</svg>
