<svg width="55" height="55" viewBox="0 0 55 55" fill="none" xmlns="http://www.w3.org/2000/svg">
<path fill-rule="evenodd" clip-rule="evenodd" d="M26.7694 0.0814822C34.0711 0.0204384 41.3737 1.94473 46.6658 6.85501C52.0832 11.8815 54.9251 18.9788 54.9985 26.2737C55.0727 33.6423 52.3747 40.8431 47.0605 46.0777C41.7228 51.3354 34.353 54.0636 26.7694 54.08C19.1684 54.0965 11.5917 51.5732 6.38796 46.1658C1.32165 40.9012 -0.141867 33.4948 0.0105871 26.2737C0.159371 19.2265 2.11154 12.1763 7.21094 7.18486C12.3169 2.18697 19.5382 0.141937 26.7694 0.0814822Z" fill="#292929"/>
<g clip-path="url(#clip0_2_102)">
<path d="M39.985 33.9653C39.7621 35.6591 38.9303 37.2138 37.6449 38.3391C36.3595 39.4645 34.7084 40.0834 33 40.0803C23.075 40.0803 15 32.0053 15 22.0803C14.9969 20.3719 15.6159 18.7208 16.7412 17.4354C17.8665 16.15 19.4212 15.3182 21.115 15.0953C21.5433 15.043 21.9771 15.1306 22.3515 15.3451C22.7259 15.5596 23.0209 15.8894 23.1925 16.2853L25.8325 22.1791V22.1941C25.9639 22.4971 26.0181 22.828 25.9904 23.1572C25.9627 23.4863 25.8539 23.8035 25.6738 24.0803C25.6513 24.1141 25.6275 24.1453 25.6025 24.1766L23 27.2616C23.9363 29.1641 25.9263 31.1366 27.8538 32.0753L30.8963 29.4866C30.9261 29.4614 30.9574 29.4381 30.99 29.4166C31.2666 29.2321 31.5849 29.1194 31.916 29.0889C32.2471 29.0583 32.5806 29.1108 32.8863 29.2416L32.9025 29.2491L38.7913 31.8878C39.1879 32.0588 39.5185 32.3535 39.7337 32.728C39.9489 33.1025 40.037 33.5366 39.985 33.9653Z" fill="white"/>
</g>
<defs>
<clipPath id="clip0_2_102">
<rect width="32" height="32" fill="white" transform="translate(11 12.0801)"/>
</clipPath>
</defs>
</svg>
