<svg width="31" height="28" viewBox="0 0 31 28" fill="none" xmlns="http://www.w3.org/2000/svg">
<path d="M30.5459 6.00116L26.3413 10.2058C25.4919 20.0524 17.188 27.7052 7.25001 27.7052C5.20813 27.7052 3.52485 27.3818 2.24657 26.7433C1.21579 26.2273 0.793915 25.6746 0.688446 25.5171C0.594403 25.3761 0.533446 25.2156 0.510133 25.0477C0.48682 24.8798 0.501752 24.7088 0.553813 24.5475C0.605875 24.3861 0.693719 24.2387 0.810784 24.1161C0.927849 23.9935 1.07111 23.8989 1.22985 23.8394C1.26641 23.8254 4.6386 22.5302 6.78032 20.0651C5.59258 19.0885 4.55574 17.9418 3.70345 16.6619C1.9597 14.073 0.00782114 9.57585 0.609696 2.85538C0.628774 2.64184 0.708474 2.43819 0.839411 2.26842C0.970348 2.09865 1.14707 1.96984 1.34876 1.89714C1.55046 1.82444 1.76872 1.81089 1.97786 1.85808C2.187 1.90527 2.3783 2.01124 2.52923 2.16351C2.57845 2.21273 7.20923 6.81819 12.8708 8.31163V7.45522C12.8686 6.55719 13.0462 5.66779 13.393 4.83942C13.7398 4.01104 14.2489 3.26043 14.8902 2.63179C15.513 2.00984 16.2541 1.51894 17.0697 1.18805C17.8853 0.857167 18.759 0.692995 19.6391 0.705226C20.8197 0.716871 21.9772 1.0338 22.9991 1.6252C24.021 2.2166 24.8725 3.06235 25.4708 4.08023H29.75C29.9726 4.08005 30.1903 4.14594 30.3755 4.26954C30.5607 4.39314 30.705 4.56891 30.7902 4.77459C30.8754 4.98026 30.8977 5.2066 30.8542 5.42495C30.8107 5.64329 30.7035 5.84383 30.5459 6.00116Z" fill="#292929"/>
</svg>
