<svg width="142" height="142" viewBox="0 0 142 142" fill="none" xmlns="http://www.w3.org/2000/svg">
<g clip-path="url(#clip0_2_4500)">
<path d="M136.265 43.077L119.679 59.6621C116.329 98.5014 83.5748 128.687 44.375 128.687C36.3209 128.687 29.6813 127.412 24.6392 124.893C20.5734 122.858 18.9093 120.678 18.4933 120.057C18.1223 119.5 17.8819 118.867 17.7899 118.205C17.698 117.543 17.7569 116.868 17.9622 116.232C18.1676 115.596 18.5141 115.014 18.9758 114.53C19.4376 114.047 20.0027 113.674 20.6288 113.439C20.773 113.384 34.0745 108.275 42.5223 98.5513C37.8374 94.6994 33.7476 90.176 30.3858 85.1278C23.5077 74.9161 15.8086 57.1771 18.1827 30.6686C18.2579 29.8263 18.5723 29.023 19.0888 28.3534C19.6052 27.6838 20.3023 27.1756 21.0979 26.8889C21.8934 26.6021 22.7544 26.5487 23.5793 26.7348C24.4042 26.921 25.1588 27.3389 25.7541 27.9396C25.9483 28.1337 44.2141 46.2997 66.5458 52.1905V48.8125C66.5374 45.2702 67.2377 41.762 68.6057 38.4945C69.9736 35.2271 71.9815 32.2663 74.5112 29.7867C76.9679 27.3334 79.891 25.3971 83.1082 24.0919C86.3254 22.7868 89.7714 22.1392 93.243 22.1874C97.8999 22.2334 102.466 23.4835 106.496 25.8162C110.527 28.149 113.886 31.485 116.246 35.5H133.125C134.003 35.4993 134.862 35.7591 135.592 36.2467C136.323 36.7342 136.892 37.4275 137.228 38.2388C137.564 39.0501 137.652 39.9429 137.481 40.8041C137.309 41.6654 136.886 42.4564 136.265 43.077Z" fill="#7B7B7B"/>
</g>
<defs>
<clipPath id="clip0_2_4500">
<rect width="142" height="142" fill="white"/>
</clipPath>
</defs>
</svg>
